# xmcd CD database file
#
# Track frame offsets:
#	150
#	12220
#	24900
#	35802
#	39897
#	53062
#	65550
#	79617
#	91910
#	105537
#	117077
#	131657
#	145247
#	160572
#	172885
#	188160
#	199802
#	212272
#	227880
#	240255
#	255592
#	267450
#	280942
#	294822
#	306265
#
# Disc length: 4213 seconds
#
# Revision: 0
# Processed by: cddbd v1.4PL0 Copyright (c) Steve Scherf et al.
# Submitted via: CDex 1.50Beta7
#
DISCID=48107319
DTITLE=Pee Wee Crayton - Blues Guitar Magic (1948-1985)
DYEAR=2000
DGENRE=Blues
TTITLE0=Poppa Stoppa (1950)
TTITLE1=Phone Call from My Baby (1951)
TTITLE2=Crayton Special (2000 prev unreleased)
TTITLE3=I Love You So (2000 prev unreleased)
TTITLE4=I Love You So (1949)
TTITLE5=Crayton's Blues (1982)
TTITLE6=Texas Hop (1948)
TTITLE7=Old Fashioned Baby (1949)
TTITLE8=Answer to Blues After Hours (1950)
TTITLE9=Good Little Woman (1950)
TTITLE10=Thinkin' of You (1951)
TTITLE11=Long After Hours (2000 prev unreleased)
TTITLE12=Miserable Old Feeling (aka Save a Tear for Me) 1985
TTITLE13=Austin Boogie (2000 prev unreleased)
TTITLE14=Louella Brown (1950)
TTITLE15=Huckle Boogie (1950)
TTITLE16=Brand New Woman (1949)
TTITLE17=When a Man has the Blues (1982)
TTITLE18=Tired of Travelin' (1951)
TTITLE19=California Woman (1960)
TTITLE20=Blues for My Baby (1960)
TTITLE21=My Everything (1960)
TTITLE22=Dedicating the Blues (1950)
TTITLE23=Cool Evening (1952)
TTITLE24=Have You Lost Your Love for Me¿ (1952)
EXTD=YEAR: 2000
EXTT0=
EXTT1=
EXTT2=
EXTT3=
EXTT4=
EXTT5=
EXTT6=
EXTT7=
EXTT8=
EXTT9=
EXTT10=
EXTT11=
EXTT12=
EXTT13=
EXTT14=
EXTT15=
EXTT16=
EXTT17=
EXTT18=
EXTT19=
EXTT20=
EXTT21=
EXTT22=
EXTT23=
EXTT24=
PLAYORDER=
